<?xml version="1.0" encoding="UTF-8" standalone="no"?>
<!DOCTYPE svg PUBLIC "-//W3C//DTD SVG 1.1//EN" "http://www.w3.org/Graphics/SVG/1.1/DTD/svg11.dtd">
<svg xmlns="http://www.w3.org/2000/svg" version="1.1" viewBox="0.00 0.00 2400.00 370.00">
<g stroke-width="2.00" fill="none" stroke-linecap="butt">
<path stroke="#b0b0b0" vector-effect="non-scaling-stroke" d="
  M 1297.36 137.05
  Q 1301.45 127.17 1305.16 117.36
  C 1306.25 114.46 1309.61 109.04 1307.65 106.27
  C 1290.10 81.53 1272.27 55.16 1253.48 30.22
  Q 1252.29 28.63 1250.62 27.32
  A 1.88 1.86 -33.0 0 0 1248.98 26.98
  L 1162.03 50.35
  A 4.20 4.19 -86.0 0 0 1159.26 52.76
  Q 1151.97 69.94 1145.07 87.60
  C 1139.99 100.59 1134.67 113.14 1129.53 126.09
  C 1127.77 130.51 1127.70 133.80 1130.57 137.46
  Q 1157.86 172.15 1183.38 204.47
  A 4.09 4.08 -23.7 0 0 1187.25 205.97
  C 1195.43 204.65 1203.56 202.83 1211.58 201.45
  Q 1232.27 197.90 1252.95 193.88
  C 1259.55 192.60 1265.94 191.81 1272.23 190.63
  Q 1276.03 189.92 1277.43 186.37
  Q 1287.53 160.80 1297.36 137.05"
/>
<path stroke="#b0b0b0" vector-effect="non-scaling-stroke" d="
  M 1388.96 321.53
  Q 1390.17 322.84 1391.39 324.19
  C 1397.97 331.47 1407.21 332.81 1416.50 331.54
  C 1428.44 329.91 1434.82 318.77 1436.78 307.49
  Q 1438.87 295.46 1436.72 282.81
  C 1434.45 269.41 1426.37 259.85 1411.88 259.37
  Q 1401.79 259.04 1394.47 264.73
  C 1392.39 266.34 1391.03 268.28 1389.30 270.15
  Q 1388.30 271.22 1388.30 269.75
  L 1388.27 232.10
  Q 1388.27 231.43 1387.60 231.44
  L 1384.69 231.46
  Q 1384.00 231.47 1384.00 232.16
  Q 1383.93 297.05 1384.05 323.06
  Q 1384.07 326.09 1384.20 329.30
  Q 1384.28 331.23 1386.20 331.10
  L 1386.93 331.05
  Q 1388.32 330.96 1388.31 329.57
  L 1388.25 321.82
  Q 1388.24 320.75 1388.96 321.53"
/>
<path stroke="#b0b0b0" vector-effect="non-scaling-stroke" d="
  M 1163.16 261.92
  Q 1159.01 270.98 1159.12 285.45
  Q 1159.23 299.13 1165.21 310.11
  C 1172.23 323.00 1185.66 330.84 1200.10 331.36
  C 1207.29 331.62 1215.05 331.75 1221.79 329.13
  Q 1230.37 325.78 1237.24 319.47
  Q 1238.99 317.87 1237.79 315.85
  C 1236.34 313.42 1230.67 305.84 1227.32 308.07
  C 1221.95 311.63 1217.03 315.27 1210.31 315.80
  Q 1187.35 317.63 1180.10 297.21
  C 1175.24 283.52 1177.55 264.11 1191.56 255.70
  Q 1204.10 248.17 1217.01 252.70
  C 1220.83 254.04 1224.17 256.16 1227.65 258.13
  A 3.66 3.66 0.0 0 0 1232.28 257.26
  L 1239.42 248.50
  Q 1239.80 248.04 1239.35 247.65
  Q 1232.67 241.81 1224.68 238.17
  C 1217.79 235.03 1208.45 234.84 1200.91 235.44
  C 1184.58 236.72 1169.98 247.02 1163.16 261.92"
/>
<path stroke="#b0b0b0" vector-effect="non-scaling-stroke" d="
  M 1062.05 298.30
  A 2.57 2.46 -63.2 0 1 1063.70 297.72
  C 1072.44 297.93 1081.56 298.06 1089.98 295.53
  C 1101.85 291.97 1108.88 283.97 1110.41 271.68
  C 1111.25 264.89 1110.73 254.87 1106.27 249.21
  Q 1096.86 237.27 1079.74 236.50
  Q 1061.73 235.69 1043.73 236.34
  A 0.46 0.46 0.0 0 0 1043.28 236.80
  L 1043.27 330.51
  A 0.49 0.49 0.0 0 0 1043.76 331.00
  L 1060.94 331.00
  Q 1061.39 331.00 1061.39 330.55
  Q 1061.39 315.72 1061.44 300.00
  Q 1061.45 298.80 1062.05 298.30"
/>
<path stroke="#b0b0b0" vector-effect="non-scaling-stroke" d="
  M 1253.78 326.23
  Q 1253.79 290.21 1253.76 255.41
  Q 1253.75 246.18 1253.49 237.55
  A 1.51 1.50 -88.5 0 0 1252.11 236.09
  L 1250.74 235.98
  Q 1249.35 235.86 1249.35 237.26
  L 1249.33 330.41
  A 0.58 0.58 0.0 0 0 1249.91 330.99
  L 1300.23 330.98
  Q 1300.95 330.98 1300.95 330.27
  L 1300.98 327.32
  A 0.66 0.65 0.4 0 0 1300.32 326.66
  L 1254.20 326.65
  A 0.42 0.42 0.0 0 1 1253.78 326.23"
/>
<path stroke="#b0b0b0" vector-effect="non-scaling-stroke" d="
  M 987.72 289.88
  L 1019.36 289.88
  A 0.62 0.61 -0.0 0 0 1019.98 289.27
  L 1019.98 276.71
  Q 1019.98 276.20 1019.46 276.20
  L 988.00 276.25
  A 0.74 0.74 0.0 0 1 987.26 275.50
  L 987.39 251.55
  A 0.81 0.81 0.0 0 1 988.20 250.74
  L 1028.24 250.74
  Q 1028.96 250.74 1028.96 250.01
  L 1028.88 236.79
  Q 1028.87 236.20 1028.29 236.20
  L 969.96 236.21
  Q 969.38 236.21 969.38 236.79
  L 969.36 330.55
  A 0.45 0.45 0.0 0 0 969.81 331.00
  L 1028.33 331.00
  A 0.58 0.58 0.0 0 0 1028.91 330.42
  L 1028.91 318.52
  Q 1028.92 315.63 1026.02 315.63
  L 988.48 315.66
  A 1.18 1.18 0.0 0 1 987.30 314.48
  L 987.32 290.28
  A 0.40 0.40 0.0 0 1 987.72 289.88"
/>
<path stroke="#b0b0b0" vector-effect="non-scaling-stroke" d="
  M 1144.25 236.68
  A 0.48 0.48 0.0 0 0 1143.77 236.20
  L 1126.67 236.20
  A 0.48 0.48 0.0 0 0 1126.19 236.68
  L 1126.19 330.52
  A 0.48 0.48 0.0 0 0 1126.67 331.00
  L 1143.77 331.00
  A 0.48 0.48 0.0 0 0 1144.25 330.52
  L 1144.25 236.68"
/>
<path stroke="#b0b0b0" vector-effect="non-scaling-stroke" d="
  M 1357.43 320.21
  A 0.36 0.35 -31.1 0 1 1358.00 320.35
  Q 1359.42 324.20 1358.98 328.22
  C 1358.59 331.76 1365.43 332.65 1363.84 328.04
  Q 1362.58 324.40 1362.59 321.42
  Q 1362.65 303.98 1362.70 287.05
  Q 1362.73 278.97 1361.41 273.75
  C 1358.78 263.30 1346.84 259.04 1336.87 259.31
  Q 1323.37 259.67 1315.16 269.28
  Q 1311.27 273.84 1312.22 279.53
  A 1.67 1.67 0.0 0 0 1314.35 280.85
  C 1315.19 280.59 1315.63 279.82 1315.84 279.02
  Q 1318.82 267.58 1329.72 264.89
  C 1339.24 262.53 1353.96 263.66 1357.13 275.55
  Q 1358.89 282.16 1357.93 290.44
  Q 1357.85 291.09 1357.20 291.07
  Q 1340.36 290.63 1329.52 292.46
  Q 1320.60 293.97 1314.42 300.35
  Q 1309.93 304.98 1309.79 312.51
  C 1309.40 332.81 1332.22 334.61 1345.90 329.34
  C 1350.96 327.40 1353.53 323.72 1357.43 320.21"
/>
<path stroke="#b0b0b0" vector-effect="non-scaling-stroke" d="
  M 1196.08 61.66
  C 1219.57 68.75 1243.26 77.08 1266.99 84.76
  Q 1269.97 85.72 1273.30 86.23
  A 0.56 0.56 0.0 0 0 1273.88 85.42
  Q 1262.31 62.45 1250.96 40.23
  Q 1249.82 38.01 1248.18 35.35
  Q 1247.78 34.71 1247.10 35.04
  Q 1221.68 47.63 1196.26 60.25
  Q 1196.10 60.33 1195.97 60.46
  Q 1195.84 60.58 1195.74 60.73
  A 0.62 0.61 25.1 0 0 1196.08 61.66"
/>
<path stroke="#b0b0b0" vector-effect="non-scaling-stroke" d="
  M 1189.14 56.40
  C 1197.86 51.88 1206.86 47.61 1215.84 43.41
  A 0.41 0.41 0.0 0 0 1215.97 42.76
  L 1215.72 42.49
  Q 1215.59 42.34 1215.40 42.40
  Q 1200.51 47.35 1183.00 51.48
  Q 1179.55 52.30 1176.00 53.64
  Q 1174.77 54.11 1175.99 54.60
  C 1179.83 56.15 1185.23 58.42 1189.14 56.40"
/>
<path stroke="#b0b0b0" vector-effect="non-scaling-stroke" d="
  M 1157.42 74.93
  Q 1149.99 92.64 1143.36 109.95
  Q 1142.93 111.07 1143.67 110.13
  L 1179.91 64.22
  A 1.03 1.03 0.0 0 0 1179.42 62.61
  L 1165.64 58.10
  A 1.71 1.71 0.0 0 0 1163.49 59.17
  Q 1160.79 66.89 1157.42 74.93"
/>
<path stroke="#b0b0b0" vector-effect="non-scaling-stroke" d="
  M 1273.70 94.66
  A 0.55 0.55 0.0 0 0 1273.54 93.70
  L 1191.89 66.80
  A 0.55 0.55 0.0 0 0 1191.19 67.47
  L 1211.68 141.26
  A 0.55 0.55 0.0 0 0 1212.55 141.55
  L 1273.70 94.66"
/>
<path stroke="#b0b0b0" vector-effect="non-scaling-stroke" d="
  M 1137.95 128.36
  A 1.19 1.19 0.0 0 0 1138.66 130.26
  L 1203.35 143.12
  A 1.19 1.19 0.0 0 0 1204.73 141.64
  L 1185.42 70.72
  A 1.19 1.19 0.0 0 0 1183.34 70.30
  L 1137.95 128.36"
/>
<path stroke="#b0b0b0" vector-effect="non-scaling-stroke" d="
  M 1280.38 83.59
  C 1282.84 88.00 1284.73 92.62 1289.87 94.68
  Q 1291.17 95.21 1290.42 94.01
  Q 1283.52 83.06 1275.98 73.60
  A 0.51 0.50 53.9 0 0 1275.31 73.49
  L 1275.09 73.64
  Q 1274.94 73.74 1275.03 73.90
  Q 1277.71 78.77 1280.38 83.59"
/>
<path stroke="#b0b0b0" vector-effect="non-scaling-stroke" d="
  M 1297.11 119.56
  Q 1298.97 115.24 1300.72 111.13
  Q 1301.29 109.80 1300.06 109.03
  Q 1293.36 104.84 1287.43 100.46
  Q 1286.55 99.81 1285.25 99.36
  A 0.90 0.90 0.0 0 0 1284.05 100.14
  Q 1282.39 120.75 1280.93 139.46
  Q 1280.13 149.65 1278.15 162.74
  Q 1278.05 163.39 1278.22 164.02
  Q 1278.78 166.14 1279.53 164.08
  Q 1287.96 140.73 1297.11 119.56"
/>
<path stroke="#b0b0b0" vector-effect="non-scaling-stroke" d="
  M 1216.53 147.99
  L 1270.21 180.97
  A 0.35 0.35 0.0 0 0 1270.74 180.70
  Q 1272.93 153.36 1274.91 127.75
  Q 1275.85 115.62 1277.57 103.07
  Q 1278.20 98.48 1274.84 101.68
  Q 1273.46 102.99 1271.75 104.31
  Q 1241.55 127.49 1216.47 146.81
  Q 1215.65 147.44 1216.53 147.99"
/>
<path stroke="#b0b0b0" vector-effect="non-scaling-stroke" d="
  M 1186.04 194.66
  L 1204.75 151.45
  A 1.00 1.00 0.0 0 0 1204.06 150.08
  Q 1187.42 146.23 1170.09 143.18
  C 1160.48 141.49 1151.31 139.43 1141.88 137.34
  Q 1140.97 137.13 1140.13 137.50
  A 0.69 0.68 -31.0 0 0 1139.86 138.55
  L 1184.46 194.86
  Q 1185.42 196.08 1186.04 194.66"
/>
<path stroke="#b0b0b0" vector-effect="non-scaling-stroke" d="
  M 1192.10 196.85
  A 0.84 0.84 0.0 0 0 1193.02 198.02
  L 1262.11 185.46
  A 0.84 0.84 0.0 0 0 1262.40 183.92
  L 1212.40 153.11
  A 0.84 0.84 0.0 0 0 1211.19 153.48
  L 1192.10 196.85"
/>
<path stroke="#b0b0b0" vector-effect="non-scaling-stroke" d="
  M 1402.79 326.42
  C 1417.87 331.94 1430.59 321.58 1432.61 306.34
  Q 1433.91 296.52 1432.64 286.01
  C 1431.54 277.00 1426.35 266.05 1416.48 264.34
  C 1411.17 263.42 1403.47 263.34 1398.78 266.63
  Q 1387.77 274.38 1388.08 287.41
  Q 1388.35 298.19 1388.15 308.27
  Q 1388.08 312.05 1389.06 314.62
  C 1391.20 320.18 1397.51 324.49 1402.79 326.42"
/>
<path stroke="#b0b0b0" vector-effect="non-scaling-stroke" d="
  M 1061.14 251.37
  L 1061.24 282.57
  A 0.81 0.81 0.0 0 0 1062.06 283.37
  L 1076.39 283.32
  A 16.66 15.79 -0.2 0 0 1092.99 267.47
  L 1092.99 266.23
  A 16.66 15.79 -0.2 0 0 1076.27 250.50
  L 1061.94 250.55
  A 0.81 0.81 0.0 0 0 1061.14 251.37"
/>
<path stroke="#b0b0b0" vector-effect="non-scaling-stroke" d="
  M 1314.24 310.99
  C 1312.40 321.37 1323.60 327.96 1332.46 327.92
  C 1341.62 327.87 1351.06 322.98 1356.13 315.16
  C 1359.37 310.17 1358.52 301.44 1358.20 295.86
  Q 1358.17 295.32 1357.63 295.30
  C 1345.28 294.93 1317.26 293.92 1314.24 310.99"
/>
</g>
<path fill="#606060" d="
  M 0.00 0.00
  L 2400.00 0.00
  L 2400.00 370.00
  L 0.00 370.00
  L 0.00 0.00
  Z
  M 1297.36 137.05
  Q 1301.45 127.17 1305.16 117.36
  C 1306.25 114.46 1309.61 109.04 1307.65 106.27
  C 1290.10 81.53 1272.27 55.16 1253.48 30.22
  Q 1252.29 28.63 1250.62 27.32
  A 1.88 1.86 -33.0 0 0 1248.98 26.98
  L 1162.03 50.35
  A 4.20 4.19 -86.0 0 0 1159.26 52.76
  Q 1151.97 69.94 1145.07 87.60
  C 1139.99 100.59 1134.67 113.14 1129.53 126.09
  C 1127.77 130.51 1127.70 133.80 1130.57 137.46
  Q 1157.86 172.15 1183.38 204.47
  A 4.09 4.08 -23.7 0 0 1187.25 205.97
  C 1195.43 204.65 1203.56 202.83 1211.58 201.45
  Q 1232.27 197.90 1252.95 193.88
  C 1259.55 192.60 1265.94 191.81 1272.23 190.63
  Q 1276.03 189.92 1277.43 186.37
  Q 1287.53 160.80 1297.36 137.05
  Z
  M 1388.96 321.53
  Q 1390.17 322.84 1391.39 324.19
  C 1397.97 331.47 1407.21 332.81 1416.50 331.54
  C 1428.44 329.91 1434.82 318.77 1436.78 307.49
  Q 1438.87 295.46 1436.72 282.81
  C 1434.45 269.41 1426.37 259.85 1411.88 259.37
  Q 1401.79 259.04 1394.47 264.73
  C 1392.39 266.34 1391.03 268.28 1389.30 270.15
  Q 1388.30 271.22 1388.30 269.75
  L 1388.27 232.10
  Q 1388.27 231.43 1387.60 231.44
  L 1384.69 231.46
  Q 1384.00 231.47 1384.00 232.16
  Q 1383.93 297.05 1384.05 323.06
  Q 1384.07 326.09 1384.20 329.30
  Q 1384.28 331.23 1386.20 331.10
  L 1386.93 331.05
  Q 1388.32 330.96 1388.31 329.57
  L 1388.25 321.82
  Q 1388.24 320.75 1388.96 321.53
  Z
  M 1163.16 261.92
  Q 1159.01 270.98 1159.12 285.45
  Q 1159.23 299.13 1165.21 310.11
  C 1172.23 323.00 1185.66 330.84 1200.10 331.36
  C 1207.29 331.62 1215.05 331.75 1221.79 329.13
  Q 1230.37 325.78 1237.24 319.47
  Q 1238.99 317.87 1237.79 315.85
  C 1236.34 313.42 1230.67 305.84 1227.32 308.07
  C 1221.95 311.63 1217.03 315.27 1210.31 315.80
  Q 1187.35 317.63 1180.10 297.21
  C 1175.24 283.52 1177.55 264.11 1191.56 255.70
  Q 1204.10 248.17 1217.01 252.70
  C 1220.83 254.04 1224.17 256.16 1227.65 258.13
  A 3.66 3.66 0.0 0 0 1232.28 257.26
  L 1239.42 248.50
  Q 1239.80 248.04 1239.35 247.65
  Q 1232.67 241.81 1224.68 238.17
  C 1217.79 235.03 1208.45 234.84 1200.91 235.44
  C 1184.58 236.72 1169.98 247.02 1163.16 261.92
  Z
  M 1062.05 298.30
  A 2.57 2.46 -63.2 0 1 1063.70 297.72
  C 1072.44 297.93 1081.56 298.06 1089.98 295.53
  C 1101.85 291.97 1108.88 283.97 1110.41 271.68
  C 1111.25 264.89 1110.73 254.87 1106.27 249.21
  Q 1096.86 237.27 1079.74 236.50
  Q 1061.73 235.69 1043.73 236.34
  A 0.46 0.46 0.0 0 0 1043.28 236.80
  L 1043.27 330.51
  A 0.49 0.49 0.0 0 0 1043.76 331.00
  L 1060.94 331.00
  Q 1061.39 331.00 1061.39 330.55
  Q 1061.39 315.72 1061.44 300.00
  Q 1061.45 298.80 1062.05 298.30
  Z
  M 1253.78 326.23
  Q 1253.79 290.21 1253.76 255.41
  Q 1253.75 246.18 1253.49 237.55
  A 1.51 1.50 -88.5 0 0 1252.11 236.09
  L 1250.74 235.98
  Q 1249.35 235.86 1249.35 237.26
  L 1249.33 330.41
  A 0.58 0.58 0.0 0 0 1249.91 330.99
  L 1300.23 330.98
  Q 1300.95 330.98 1300.95 330.27
  L 1300.98 327.32
  A 0.66 0.65 0.4 0 0 1300.32 326.66
  L 1254.20 326.65
  A 0.42 0.42 0.0 0 1 1253.78 326.23
  Z
  M 987.72 289.88
  L 1019.36 289.88
  A 0.62 0.61 -0.0 0 0 1019.98 289.27
  L 1019.98 276.71
  Q 1019.98 276.20 1019.46 276.20
  L 988.00 276.25
  A 0.74 0.74 0.0 0 1 987.26 275.50
  L 987.39 251.55
  A 0.81 0.81 0.0 0 1 988.20 250.74
  L 1028.24 250.74
  Q 1028.96 250.74 1028.96 250.01
  L 1028.88 236.79
  Q 1028.87 236.20 1028.29 236.20
  L 969.96 236.21
  Q 969.38 236.21 969.38 236.79
  L 969.36 330.55
  A 0.45 0.45 0.0 0 0 969.81 331.00
  L 1028.33 331.00
  A 0.58 0.58 0.0 0 0 1028.91 330.42
  L 1028.91 318.52
  Q 1028.92 315.63 1026.02 315.63
  L 988.48 315.66
  A 1.18 1.18 0.0 0 1 987.30 314.48
  L 987.32 290.28
  A 0.40 0.40 0.0 0 1 987.72 289.88
  Z
  M 1144.25 236.68
  A 0.48 0.48 0.0 0 0 1143.77 236.20
  L 1126.67 236.20
  A 0.48 0.48 0.0 0 0 1126.19 236.68
  L 1126.19 330.52
  A 0.48 0.48 0.0 0 0 1126.67 331.00
  L 1143.77 331.00
  A 0.48 0.48 0.0 0 0 1144.25 330.52
  L 1144.25 236.68
  Z
  M 1357.43 320.21
  A 0.36 0.35 -31.1 0 1 1358.00 320.35
  Q 1359.42 324.20 1358.98 328.22
  C 1358.59 331.76 1365.43 332.65 1363.84 328.04
  Q 1362.58 324.40 1362.59 321.42
  Q 1362.65 303.98 1362.70 287.05
  Q 1362.73 278.97 1361.41 273.75
  C 1358.78 263.30 1346.84 259.04 1336.87 259.31
  Q 1323.37 259.67 1315.16 269.28
  Q 1311.27 273.84 1312.22 279.53
  A 1.67 1.67 0.0 0 0 1314.35 280.85
  C 1315.19 280.59 1315.63 279.82 1315.84 279.02
  Q 1318.82 267.58 1329.72 264.89
  C 1339.24 262.53 1353.96 263.66 1357.13 275.55
  Q 1358.89 282.16 1357.93 290.44
  Q 1357.85 291.09 1357.20 291.07
  Q 1340.36 290.63 1329.52 292.46
  Q 1320.60 293.97 1314.42 300.35
  Q 1309.93 304.98 1309.79 312.51
  C 1309.40 332.81 1332.22 334.61 1345.90 329.34
  C 1350.96 327.40 1353.53 323.72 1357.43 320.21
  Z"
/>
<path fill="#ffffff" d="
  M 1297.36 137.05
  Q 1287.53 160.80 1277.43 186.37
  Q 1276.03 189.92 1272.23 190.63
  C 1265.94 191.81 1259.55 192.60 1252.95 193.88
  Q 1232.27 197.90 1211.58 201.45
  C 1203.56 202.83 1195.43 204.65 1187.25 205.97
  A 4.09 4.08 -23.7 0 1 1183.38 204.47
  Q 1157.86 172.15 1130.57 137.46
  C 1127.70 133.80 1127.77 130.51 1129.53 126.09
  C 1134.67 113.14 1139.99 100.59 1145.07 87.60
  Q 1151.97 69.94 1159.26 52.76
  A 4.20 4.19 -86.0 0 1 1162.03 50.35
  L 1248.98 26.98
  A 1.88 1.86 -33.0 0 1 1250.62 27.32
  Q 1252.29 28.63 1253.48 30.22
  C 1272.27 55.16 1290.10 81.53 1307.65 106.27
  C 1309.61 109.04 1306.25 114.46 1305.16 117.36
  Q 1301.45 127.17 1297.36 137.05
  Z
  M 1196.08 61.66
  C 1219.57 68.75 1243.26 77.08 1266.99 84.76
  Q 1269.97 85.72 1273.30 86.23
  A 0.56 0.56 0.0 0 0 1273.88 85.42
  Q 1262.31 62.45 1250.96 40.23
  Q 1249.82 38.01 1248.18 35.35
  Q 1247.78 34.71 1247.10 35.04
  Q 1221.68 47.63 1196.26 60.25
  Q 1196.10 60.33 1195.97 60.46
  Q 1195.84 60.58 1195.74 60.73
  A 0.62 0.61 25.1 0 0 1196.08 61.66
  Z
  M 1189.14 56.40
  C 1197.86 51.88 1206.86 47.61 1215.84 43.41
  A 0.41 0.41 0.0 0 0 1215.97 42.76
  L 1215.72 42.49
  Q 1215.59 42.34 1215.40 42.40
  Q 1200.51 47.35 1183.00 51.48
  Q 1179.55 52.30 1176.00 53.64
  Q 1174.77 54.11 1175.99 54.60
  C 1179.83 56.15 1185.23 58.42 1189.14 56.40
  Z
  M 1157.42 74.93
  Q 1149.99 92.64 1143.36 109.95
  Q 1142.93 111.07 1143.67 110.13
  L 1179.91 64.22
  A 1.03 1.03 0.0 0 0 1179.42 62.61
  L 1165.64 58.10
  A 1.71 1.71 0.0 0 0 1163.49 59.17
  Q 1160.79 66.89 1157.42 74.93
  Z
  M 1273.70 94.66
  A 0.55 0.55 0.0 0 0 1273.54 93.70
  L 1191.89 66.80
  A 0.55 0.55 0.0 0 0 1191.19 67.47
  L 1211.68 141.26
  A 0.55 0.55 0.0 0 0 1212.55 141.55
  L 1273.70 94.66
  Z
  M 1137.95 128.36
  A 1.19 1.19 0.0 0 0 1138.66 130.26
  L 1203.35 143.12
  A 1.19 1.19 0.0 0 0 1204.73 141.64
  L 1185.42 70.72
  A 1.19 1.19 0.0 0 0 1183.34 70.30
  L 1137.95 128.36
  Z
  M 1280.38 83.59
  C 1282.84 88.00 1284.73 92.62 1289.87 94.68
  Q 1291.17 95.21 1290.42 94.01
  Q 1283.52 83.06 1275.98 73.60
  A 0.51 0.50 53.9 0 0 1275.31 73.49
  L 1275.09 73.64
  Q 1274.94 73.74 1275.03 73.90
  Q 1277.71 78.77 1280.38 83.59
  Z
  M 1297.11 119.56
  Q 1298.97 115.24 1300.72 111.13
  Q 1301.29 109.80 1300.06 109.03
  Q 1293.36 104.84 1287.43 100.46
  Q 1286.55 99.81 1285.25 99.36
  A 0.90 0.90 0.0 0 0 1284.05 100.14
  Q 1282.39 120.75 1280.93 139.46
  Q 1280.13 149.65 1278.15 162.74
  Q 1278.05 163.39 1278.22 164.02
  Q 1278.78 166.14 1279.53 164.08
  Q 1287.96 140.73 1297.11 119.56
  Z
  M 1216.53 147.99
  L 1270.21 180.97
  A 0.35 0.35 0.0 0 0 1270.74 180.70
  Q 1272.93 153.36 1274.91 127.75
  Q 1275.85 115.62 1277.57 103.07
  Q 1278.20 98.48 1274.84 101.68
  Q 1273.46 102.99 1271.75 104.31
  Q 1241.55 127.49 1216.47 146.81
  Q 1215.65 147.44 1216.53 147.99
  Z
  M 1186.04 194.66
  L 1204.75 151.45
  A 1.00 1.00 0.0 0 0 1204.06 150.08
  Q 1187.42 146.23 1170.09 143.18
  C 1160.48 141.49 1151.31 139.43 1141.88 137.34
  Q 1140.97 137.13 1140.13 137.50
  A 0.69 0.68 -31.0 0 0 1139.86 138.55
  L 1184.46 194.86
  Q 1185.42 196.08 1186.04 194.66
  Z
  M 1192.10 196.85
  A 0.84 0.84 0.0 0 0 1193.02 198.02
  L 1262.11 185.46
  A 0.84 0.84 0.0 0 0 1262.40 183.92
  L 1212.40 153.11
  A 0.84 0.84 0.0 0 0 1211.19 153.48
  L 1192.10 196.85
  Z"
/>
<path fill="#606060" d="
  M 1266.99 84.76
  C 1243.26 77.08 1219.57 68.75 1196.08 61.66
  A 0.62 0.61 25.1 0 1 1195.74 60.73
  Q 1195.84 60.58 1195.97 60.46
  Q 1196.10 60.33 1196.26 60.25
  Q 1221.68 47.63 1247.10 35.04
  Q 1247.78 34.71 1248.18 35.35
  Q 1249.82 38.01 1250.96 40.23
  Q 1262.31 62.45 1273.88 85.42
  A 0.56 0.56 0.0 0 1 1273.30 86.23
  Q 1269.97 85.72 1266.99 84.76
  Z"
/>
<path fill="#606060" d="
  M 1215.84 43.41
  C 1206.86 47.61 1197.86 51.88 1189.14 56.40
  C 1185.23 58.42 1179.83 56.15 1175.99 54.60
  Q 1174.77 54.11 1176.00 53.64
  Q 1179.55 52.30 1183.00 51.48
  Q 1200.51 47.35 1215.40 42.40
  Q 1215.59 42.34 1215.72 42.49
  L 1215.97 42.76
  A 0.41 0.41 0.0 0 1 1215.84 43.41
  Z"
/>
<path fill="#606060" d="
  M 1157.42 74.93
  Q 1160.79 66.89 1163.49 59.17
  A 1.71 1.71 0.0 0 1 1165.64 58.10
  L 1179.42 62.61
  A 1.03 1.03 0.0 0 1 1179.91 64.22
  L 1143.67 110.13
  Q 1142.93 111.07 1143.36 109.95
  Q 1149.99 92.64 1157.42 74.93
  Z"
/>
<path fill="#606060" d="
  M 1273.70 94.66
  L 1212.55 141.55
  A 0.55 0.55 0.0 0 1 1211.68 141.26
  L 1191.19 67.47
  A 0.55 0.55 0.0 0 1 1191.89 66.80
  L 1273.54 93.70
  A 0.55 0.55 0.0 0 1 1273.70 94.66
  Z"
/>
<path fill="#606060" d="
  M 1137.95 128.36
  L 1183.34 70.30
  A 1.19 1.19 0.0 0 1 1185.42 70.72
  L 1204.73 141.64
  A 1.19 1.19 0.0 0 1 1203.35 143.12
  L 1138.66 130.26
  A 1.19 1.19 0.0 0 1 1137.95 128.36
  Z"
/>
<path fill="#606060" d="
  M 1280.38 83.59
  Q 1277.71 78.77 1275.03 73.90
  Q 1274.94 73.74 1275.09 73.64
  L 1275.31 73.49
  A 0.51 0.50 53.9 0 1 1275.98 73.60
  Q 1283.52 83.06 1290.42 94.01
  Q 1291.17 95.21 1289.87 94.68
  C 1284.73 92.62 1282.84 88.00 1280.38 83.59
  Z"
/>
<path fill="#606060" d="
  M 1297.11 119.56
  Q 1287.96 140.73 1279.53 164.08
  Q 1278.78 166.14 1278.22 164.02
  Q 1278.05 163.39 1278.15 162.74
  Q 1280.13 149.65 1280.93 139.46
  Q 1282.39 120.75 1284.05 100.14
  A 0.90 0.90 0.0 0 1 1285.25 99.36
  Q 1286.55 99.81 1287.43 100.46
  Q 1293.36 104.84 1300.06 109.03
  Q 1301.29 109.80 1300.72 111.13
  Q 1298.97 115.24 1297.11 119.56
  Z"
/>
<path fill="#606060" d="
  M 1270.21 180.97
  L 1216.53 147.99
  Q 1215.65 147.44 1216.47 146.81
  Q 1241.55 127.49 1271.75 104.31
  Q 1273.46 102.99 1274.84 101.68
  Q 1278.20 98.48 1277.57 103.07
  Q 1275.85 115.62 1274.91 127.75
  Q 1272.93 153.36 1270.74 180.70
  A 0.35 0.35 0.0 0 1 1270.21 180.97
  Z"
/>
<path fill="#606060" d="
  M 1204.75 151.45
  L 1186.04 194.66
  Q 1185.42 196.08 1184.46 194.86
  L 1139.86 138.55
  A 0.69 0.68 -31.0 0 1 1140.13 137.50
  Q 1140.97 137.13 1141.88 137.34
  C 1151.31 139.43 1160.48 141.49 1170.09 143.18
  Q 1187.42 146.23 1204.06 150.08
  A 1.00 1.00 0.0 0 1 1204.75 151.45
  Z"
/>
<path fill="#606060" d="
  M 1192.10 196.85
  L 1211.19 153.48
  A 0.84 0.84 0.0 0 1 1212.40 153.11
  L 1262.40 183.92
  A 0.84 0.84 0.0 0 1 1262.11 185.46
  L 1193.02 198.02
  A 0.84 0.84 0.0 0 1 1192.10 196.85
  Z"
/>
<path fill="#ffffff" d="
  M 1388.25 321.82
  L 1388.31 329.57
  Q 1388.32 330.96 1386.93 331.05
  L 1386.20 331.10
  Q 1384.28 331.23 1384.20 329.30
  Q 1384.07 326.09 1384.05 323.06
  Q 1383.93 297.05 1384.00 232.16
  Q 1384.00 231.47 1384.69 231.46
  L 1387.60 231.44
  Q 1388.27 231.43 1388.27 232.10
  L 1388.30 269.75
  Q 1388.30 271.22 1389.30 270.15
  C 1391.03 268.28 1392.39 266.34 1394.47 264.73
  Q 1401.79 259.04 1411.88 259.37
  C 1426.37 259.85 1434.45 269.41 1436.72 282.81
  Q 1438.87 295.46 1436.78 307.49
  C 1434.82 318.77 1428.44 329.91 1416.50 331.54
  C 1407.21 332.81 1397.97 331.47 1391.39 324.19
  Q 1390.17 322.84 1388.96 321.53
  Q 1388.24 320.75 1388.25 321.82
  Z
  M 1402.79 326.42
  C 1417.87 331.94 1430.59 321.58 1432.61 306.34
  Q 1433.91 296.52 1432.64 286.01
  C 1431.54 277.00 1426.35 266.05 1416.48 264.34
  C 1411.17 263.42 1403.47 263.34 1398.78 266.63
  Q 1387.77 274.38 1388.08 287.41
  Q 1388.35 298.19 1388.15 308.27
  Q 1388.08 312.05 1389.06 314.62
  C 1391.20 320.18 1397.51 324.49 1402.79 326.42
  Z"
/>
<path fill="#ffffff" d="
  M 1163.16 261.92
  C 1169.98 247.02 1184.58 236.72 1200.91 235.44
  C 1208.45 234.84 1217.79 235.03 1224.68 238.17
  Q 1232.67 241.81 1239.35 247.65
  Q 1239.80 248.04 1239.42 248.50
  L 1232.28 257.26
  A 3.66 3.66 0.0 0 1 1227.65 258.13
  C 1224.17 256.16 1220.83 254.04 1217.01 252.70
  Q 1204.10 248.17 1191.56 255.70
  C 1177.55 264.11 1175.24 283.52 1180.10 297.21
  Q 1187.35 317.63 1210.31 315.80
  C 1217.03 315.27 1221.95 311.63 1227.32 308.07
  C 1230.67 305.84 1236.34 313.42 1237.79 315.85
  Q 1238.99 317.87 1237.24 319.47
  Q 1230.37 325.78 1221.79 329.13
  C 1215.05 331.75 1207.29 331.62 1200.10 331.36
  C 1185.66 330.84 1172.23 323.00 1165.21 310.11
  Q 1159.23 299.13 1159.12 285.45
  Q 1159.01 270.98 1163.16 261.92
  Z"
/>
<path fill="#ffffff" d="
  M 1062.05 298.30
  Q 1061.45 298.80 1061.44 300.00
  Q 1061.39 315.72 1061.39 330.55
  Q 1061.39 331.00 1060.94 331.00
  L 1043.76 331.00
  A 0.49 0.49 0.0 0 1 1043.27 330.51
  L 1043.28 236.80
  A 0.46 0.46 0.0 0 1 1043.73 236.34
  Q 1061.73 235.69 1079.74 236.50
  Q 1096.86 237.27 1106.27 249.21
  C 1110.73 254.87 1111.25 264.89 1110.41 271.68
  C 1108.88 283.97 1101.85 291.97 1089.98 295.53
  C 1081.56 298.06 1072.44 297.93 1063.70 297.72
  A 2.57 2.46 -63.2 0 0 1062.05 298.30
  Z
  M 1061.14 251.37
  L 1061.24 282.57
  A 0.81 0.81 0.0 0 0 1062.06 283.37
  L 1076.39 283.32
  A 16.66 15.79 -0.2 0 0 1092.99 267.47
  L 1092.99 266.23
  A 16.66 15.79 -0.2 0 0 1076.27 250.50
  L 1061.94 250.55
  A 0.81 0.81 0.0 0 0 1061.14 251.37
  Z"
/>
<path fill="#ffffff" d="
  M 1253.78 326.23
  A 0.42 0.42 0.0 0 0 1254.20 326.65
  L 1300.32 326.66
  A 0.66 0.65 0.4 0 1 1300.98 327.32
  L 1300.95 330.27
  Q 1300.95 330.98 1300.23 330.98
  L 1249.91 330.99
  A 0.58 0.58 0.0 0 1 1249.33 330.41
  L 1249.35 237.26
  Q 1249.35 235.86 1250.74 235.98
  L 1252.11 236.09
  A 1.51 1.50 -88.5 0 1 1253.49 237.55
  Q 1253.75 246.18 1253.76 255.41
  Q 1253.79 290.21 1253.78 326.23
  Z"
/>
<path fill="#ffffff" d="
  M 987.72 289.88
  A 0.40 0.40 0.0 0 0 987.32 290.28
  L 987.30 314.48
  A 1.18 1.18 0.0 0 0 988.48 315.66
  L 1026.02 315.63
  Q 1028.92 315.63 1028.91 318.52
  L 1028.91 330.42
  A 0.58 0.58 0.0 0 1 1028.33 331.00
  L 969.81 331.00
  A 0.45 0.45 0.0 0 1 969.36 330.55
  L 969.38 236.79
  Q 969.38 236.21 969.96 236.21
  L 1028.29 236.20
  Q 1028.87 236.20 1028.88 236.79
  L 1028.96 250.01
  Q 1028.96 250.74 1028.24 250.74
  L 988.20 250.74
  A 0.81 0.81 0.0 0 0 987.39 251.55
  L 987.26 275.50
  A 0.74 0.74 0.0 0 0 988.00 276.25
  L 1019.46 276.20
  Q 1019.98 276.20 1019.98 276.71
  L 1019.98 289.27
  A 0.62 0.61 -0.0 0 1 1019.36 289.88
  L 987.72 289.88
  Z"
/>
<rect fill="#ffffff" x="1126.19" y="236.20" width="18.06" height="94.80" rx="0.48"/>
<path fill="#606060" d="
  M 1061.14 251.37
  A 0.81 0.81 0.0 0 1 1061.94 250.55
  L 1076.27 250.50
  A 16.66 15.79 -0.2 0 1 1092.99 266.23
  L 1092.99 267.47
  A 16.66 15.79 -0.2 0 1 1076.39 283.32
  L 1062.06 283.37
  A 0.81 0.81 0.0 0 1 1061.24 282.57
  L 1061.14 251.37
  Z"
/>
<path fill="#ffffff" d="
  M 1357.43 320.21
  C 1353.53 323.72 1350.96 327.40 1345.90 329.34
  C 1332.22 334.61 1309.40 332.81 1309.79 312.51
  Q 1309.93 304.98 1314.42 300.35
  Q 1320.60 293.97 1329.52 292.46
  Q 1340.36 290.63 1357.20 291.07
  Q 1357.85 291.09 1357.93 290.44
  Q 1358.89 282.16 1357.13 275.55
  C 1353.96 263.66 1339.24 262.53 1329.72 264.89
  Q 1318.82 267.58 1315.84 279.02
  C 1315.63 279.82 1315.19 280.59 1314.35 280.85
  A 1.67 1.67 0.0 0 1 1312.22 279.53
  Q 1311.27 273.84 1315.16 269.28
  Q 1323.37 259.67 1336.87 259.31
  C 1346.84 259.04 1358.78 263.30 1361.41 273.75
  Q 1362.73 278.97 1362.70 287.05
  Q 1362.65 303.98 1362.59 321.42
  Q 1362.58 324.40 1363.84 328.04
  C 1365.43 332.65 1358.59 331.76 1358.98 328.22
  Q 1359.42 324.20 1358.00 320.35
  A 0.36 0.35 -31.1 0 0 1357.43 320.21
  Z
  M 1314.24 310.99
  C 1312.40 321.37 1323.60 327.96 1332.46 327.92
  C 1341.62 327.87 1351.06 322.98 1356.13 315.16
  C 1359.37 310.17 1358.52 301.44 1358.20 295.86
  Q 1358.17 295.32 1357.63 295.30
  C 1345.28 294.93 1317.26 293.92 1314.24 310.99
  Z"
/>
<path fill="#606060" d="
  M 1432.61 306.34
  C 1430.59 321.58 1417.87 331.94 1402.79 326.42
  C 1397.51 324.49 1391.20 320.18 1389.06 314.62
  Q 1388.08 312.05 1388.15 308.27
  Q 1388.35 298.19 1388.08 287.41
  Q 1387.77 274.38 1398.78 266.63
  C 1403.47 263.34 1411.17 263.42 1416.48 264.34
  C 1426.35 266.05 1431.54 277.00 1432.64 286.01
  Q 1433.91 296.52 1432.61 306.34
  Z"
/>
<path fill="#606060" d="
  M 1332.46 327.92
  C 1323.60 327.96 1312.40 321.37 1314.24 310.99
  C 1317.26 293.92 1345.28 294.93 1357.63 295.30
  Q 1358.17 295.32 1358.20 295.86
  C 1358.52 301.44 1359.37 310.17 1356.13 315.16
  C 1351.06 322.98 1341.62 327.87 1332.46 327.92
  Z"
/>
</svg>
