<?xml version="1.0" encoding="UTF-8"?>
<!DOCTYPE svg PUBLIC "-//W3C//DTD SVG 1.1//EN" "http://www.w3.org/Graphics/SVG/1.1/DTD/svg11.dtd">
<svg xmlns="http://www.w3.org/2000/svg" version="1.1" width="418px" height="272px" style="shape-rendering:geometricPrecision; text-rendering:geometricPrecision; image-rendering:optimizeQuality; fill-rule:evenodd; clip-rule:evenodd" xmlns:xlink="http://www.w3.org/1999/xlink">
<g><path style="opacity:1" fill="#050505" d="M 245.5,0.5 C 247.527,0.337876 249.527,0.504543 251.5,1C 267.544,23.5882 283.711,46.0882 300,68.5C 301.373,70.6954 301.706,73.0288 301,75.5C 291.977,98.7471 282.477,121.747 272.5,144.5C 246.189,149.662 219.855,154.662 193.5,159.5C 192.252,158.96 191.085,158.293 190,157.5C 174.381,136.88 158.381,116.546 142,96.5C 141.333,94.5 141.333,92.5 142,90.5C 151.352,67.4051 160.852,44.4051 170.5,21.5C 195.755,14.94 220.755,7.93995 245.5,0.5 Z M 246.5,6.5 C 247.496,6.41423 248.329,6.74756 249,7.5C 256.435,22.8706 264.269,38.0373 272.5,53C 248.309,46.2786 224.309,38.6119 200.5,30C 216.194,22.6201 231.527,14.7868 246.5,6.5 Z M 217.5,13.5 C 219.379,13.3932 219.712,13.8932 218.5,15C 209.955,19.4392 201.289,23.6059 192.5,27.5C 189.065,26.6326 185.731,25.466 182.5,24C 194.324,20.6327 205.991,17.1327 217.5,13.5 Z M 173.5,27.5 C 178.236,28.6348 182.903,29.9681 187.5,31.5C 187.649,32.552 187.483,33.552 187,34.5C 176.333,47.8333 165.667,61.1667 155,74.5C 160,58.4804 166.167,42.8137 173.5,27.5 Z M 197.5,35.5 C 222.474,42.7691 247.141,50.9357 271.5,60C 253.309,74.3579 234.976,88.5246 216.5,102.5C 209.398,80.4333 203.065,58.0999 197.5,35.5 Z M 190.5,37.5 C 192.247,38.9807 193.414,40.9807 194,43.5C 199.109,63.4865 204.609,83.3199 210.5,103C 198.142,101.499 185.809,99.4987 173.5,97C 165.04,95.4596 156.707,93.4596 148.5,91C 163.096,73.5783 177.096,55.7449 190.5,37.5 Z M 271.5,38.5 C 277.206,45.9466 282.373,53.6133 287,61.5C 284.667,59.8333 282.333,58.1667 280,56.5C 276.86,50.5575 274.027,44.5575 271.5,38.5 Z M 280.5,63.5 C 285.81,66.8193 290.81,70.4859 295.5,74.5C 288.91,90.4317 282.41,106.432 276,122.5C 276.961,102.794 278.461,83.1277 280.5,63.5 Z M 273.5,64.5 C 274.158,65.7933 274.492,67.2933 274.5,69C 272.501,90.4854 270.668,111.985 269,133.5C 268.781,134.938 268.281,136.271 267.5,137.5C 251.298,127.571 235.298,117.404 219.5,107C 237.751,93.0548 255.751,78.8881 273.5,64.5 Z M 150.5,97.5 C 170.506,101.432 190.506,105.599 210.5,110C 204.719,123.725 198.553,137.225 192,150.5C 177.547,133.226 163.713,115.559 150.5,97.5 Z M 215.5,111.5 C 231.475,120.822 247.142,130.655 262.5,141C 240.911,144.918 219.411,149.085 198,153.5C 203.321,139.393 209.154,125.393 215.5,111.5 Z"/></g>
<g><path style="opacity:1" fill="#040504" d="M 417.5,229.5 C 417.5,236.167 417.5,242.833 417.5,249.5C 415.729,255.614 412.895,261.281 409,266.5C 406.469,268.903 403.636,270.57 400.5,271.5C 395.833,271.5 391.167,271.5 386.5,271.5C 381.818,269.391 377.651,266.391 374,262.5C 373.503,265.146 373.336,267.813 373.5,270.5C 372.5,270.5 371.5,270.5 370.5,270.5C 370.5,241.167 370.5,211.833 370.5,182.5C 371.5,182.5 372.5,182.5 373.5,182.5C 373.333,194.505 373.5,206.505 374,218.5C 381.076,208.472 390.576,205.305 402.5,209C 410.806,213.458 415.806,220.291 417.5,229.5 Z M 391.5,210.5 C 403.455,210.733 410.621,216.733 413,228.5C 414.599,237.532 414.266,246.532 412,255.5C 406.321,267.418 397.154,271.251 384.5,267C 379.667,264.833 376.167,261.333 374,256.5C 373.333,245.833 373.333,235.167 374,224.5C 377.562,216.824 383.396,212.158 391.5,210.5 Z"/></g>
<g><path style="opacity:1" fill="#010101" d="M 217.5,271.5 C 212.167,271.5 206.833,271.5 201.5,271.5C 184.56,267.392 174.06,256.725 170,239.5C 165.734,214.853 174.9,197.686 197.5,188C 213.602,183.556 227.935,186.556 240.5,197C 237.98,200.516 235.147,203.683 232,206.5C 216.794,196.027 202.794,197.361 190,210.5C 183.62,222.447 183.287,234.447 189,246.5C 201.763,260.949 215.93,262.282 231.5,250.5C 234.431,252.352 236.931,254.685 239,257.5C 239.667,258.167 239.667,258.833 239,259.5C 233.147,266.045 225.98,270.045 217.5,271.5 Z"/></g>
<g><path style="opacity:1" fill="#010101" d="M -0.5,187.5 C 17.1667,187.5 34.8333,187.5 52.5,187.5C 52.5,191.5 52.5,195.5 52.5,199.5C 39.8333,199.5 27.1667,199.5 14.5,199.5C 14.5,207.167 14.5,214.833 14.5,222.5C 24.5,222.5 34.5,222.5 44.5,222.5C 44.5,226.5 44.5,230.5 44.5,234.5C 34.5,234.5 24.5,234.5 14.5,234.5C 14.185,242.42 14.5183,250.253 15.5,258C 27.8288,258.5 40.1622,258.667 52.5,258.5C 52.5,262.5 52.5,266.5 52.5,270.5C 34.8333,270.5 17.1667,270.5 -0.5,270.5C -0.5,242.833 -0.5,215.167 -0.5,187.5 Z"/></g>
<g><path style="opacity:1" fill="#010101" d="M 65.5,187.5 C 78.5043,187.333 91.5043,187.5 104.5,188C 120.724,192.261 127.557,202.761 125,219.5C 121.969,232.299 113.802,239.466 100.5,241C 94.1754,241.5 87.8421,241.666 81.5,241.5C 81.5,251.167 81.5,260.833 81.5,270.5C 76.1667,270.5 70.8333,270.5 65.5,270.5C 65.5,242.833 65.5,215.167 65.5,187.5 Z M 81.5,199.5 C 87.8421,199.334 94.1754,199.5 100.5,200C 109.126,204.217 111.96,211.051 109,220.5C 105.91,225.535 101.41,228.368 95.5,229C 90.8452,229.499 86.1785,229.666 81.5,229.5C 81.5,219.5 81.5,209.5 81.5,199.5 Z"/></g>
<g><path style="opacity:1" fill="#000000" d="M 139.5,187.5 C 144.833,187.5 150.167,187.5 155.5,187.5C 155.5,215.167 155.5,242.833 155.5,270.5C 150.167,270.5 144.833,270.5 139.5,270.5C 139.5,242.833 139.5,215.167 139.5,187.5 Z"/></g>
<g><path style="opacity:1" fill="#000000" d="M 249.5,187.5 C 250.5,187.5 251.5,187.5 252.5,187.5C 252.5,214.167 252.5,240.833 252.5,267.5C 266.833,267.5 281.167,267.5 295.5,267.5C 295.5,268.5 295.5,269.5 295.5,270.5C 280.167,270.5 264.833,270.5 249.5,270.5C 249.5,242.833 249.5,215.167 249.5,187.5 Z"/></g>
<g><path style="opacity:1" fill="#0c0c0c" d="M 331.5,271.5 C 326.5,271.5 321.5,271.5 316.5,271.5C 304.468,266.985 300.968,258.652 306,246.5C 309.092,242.072 313.259,239.239 318.5,238C 327.783,236.813 337.117,236.147 346.5,236C 349.703,220.886 343.703,212.386 328.5,210.5C 321.462,210.705 315.629,213.372 311,218.5C 309.589,220.65 308.755,222.984 308.5,225.5C 307.5,225.5 306.5,225.5 305.5,225.5C 306.587,217.514 310.92,212.014 318.5,209C 327.246,206.635 335.58,207.635 343.5,212C 347.972,215.78 350.139,220.613 350,226.5C 350.216,241.198 350.716,255.865 351.5,270.5C 350.178,270.67 349.011,270.337 348,269.5C 347.821,266.447 347.321,263.447 346.5,260.5C 342.678,265.898 337.678,269.565 331.5,271.5 Z M 324.5,239.5 C 332.167,239.5 339.833,239.5 347.5,239.5C 348.87,260.626 338.87,270.126 317.5,268C 308.057,264.327 305.223,257.827 309,248.5C 313.274,243.785 318.441,240.785 324.5,239.5 Z"/></g>
</svg>
