<?xml version="1.0" encoding="UTF-8" standalone="no"?>
<!DOCTYPE svg PUBLIC "-//W3C//DTD SVG 1.1//EN" "http://www.w3.org/Graphics/SVG/1.1/DTD/svg11.dtd">
<svg xmlns="http://www.w3.org/2000/svg" version="1.1" viewBox="0.00 0.00 700.00 592.00">
<path fill="#212529" d="
  M 262.22 205.48
  Q 262.33 116.58 262.19 30.36
  Q 262.18 22.48 263.29 20.30
  C 265.63 15.70 269.47 13.87 274.34 13.87
  Q 349.64 13.82 425.72 13.86
  C 429.82 13.86 433.89 16.77 435.47 20.46
  Q 436.47 22.79 436.49 26.20
  Q 437.29 118.23 438.06 204.35
  A 2.89 2.88 -59.4 0 0 438.39 205.65
  Q 494.13 312.53 550.86 413.16
  Q 572.13 450.90 592.55 484.43
  Q 601.21 498.66 604.07 514.68
  C 610.29 549.62 582.58 568.86 552.31 575.42
  Q 545.28 576.95 534.96 577.17
  Q 395.30 580.20 274.56 579.97
  Q 229.67 579.89 190.95 578.21
  C 172.80 577.42 154.45 576.49 138.05 569.34
  C 105.40 555.10 98.30 522.58 107.96 490.66
  Q 109.50 485.54 114.28 476.85
  Q 187.70 343.31 261.14 209.53
  Q 262.22 207.57 262.22 205.48
  Z
  M 344.57 162.44
  L 344.57 183.58
  Q 344.57 184.23 343.92 184.23
  L 285.03 184.23
  A 0.31 0.30 -0.0 0 0 284.72 184.53
  Q 284.69 196.36 284.74 209.80
  C 284.75 211.90 284.32 213.86 283.29 215.74
  Q 207.22 354.35 133.05 489.21
  Q 129.97 494.82 128.68 499.66
  C 124.64 514.82 124.76 532.10 137.25 542.81
  C 144.56 549.08 155.66 552.58 165.08 553.73
  C 175.18 554.95 185.41 555.70 195.36 556.04
  Q 247.43 557.80 302.52 557.63
  Q 418.50 557.27 533.06 554.86
  Q 542.98 554.65 548.85 553.34
  C 566.65 549.37 586.77 539.31 581.78 517.00
  Q 579.38 506.27 574.65 498.28
  C 564.58 481.29 554.68 465.04 545.07 448.25
  C 501.83 372.70 458.65 292.34 417.03 213.35
  Q 415.73 210.89 415.70 208.22
  Q 414.91 122.87 414.18 36.73
  Q 414.18 36.25 413.70 36.25
  L 285.23 36.25
  Q 284.71 36.25 284.71 36.77
  L 284.72 79.96
  Q 284.72 80.46 285.21 80.46
  L 344.01 80.46
  Q 344.56 80.46 344.56 81.01
  L 344.57 102.38
  A 0.45 0.45 0.0 0 1 344.12 102.83
  L 285.32 102.83
  Q 284.72 102.83 284.72 103.43
  L 284.72 120.79
  Q 284.72 121.38 285.30 121.38
  L 319.86 121.37
  Q 320.40 121.37 320.40 121.91
  L 320.40 143.38
  A 0.38 0.37 -90.0 0 1 320.03 143.76
  L 285.23 143.76
  Q 284.71 143.76 284.71 144.27
  L 284.72 161.51
  A 0.30 0.29 -90.0 0 0 285.01 161.81
  L 343.94 161.81
  Q 344.57 161.81 344.57 162.44
  Z"
/>
<path fill="#212529" d="
  M 537.37 513.47
  C 533.38 522.88 521.29 527.33 511.28 527.49
  Q 367.22 529.73 239.79 529.26
  Q 216.92 529.17 192.25 528.13
  C 185.60 527.85 178.47 527.32 172.49 524.34
  C 155.02 515.62 160.56 491.68 168.30 477.69
  Q 222.75 379.28 272.07 289.99
  A 1.00 0.98 14.2 0 1 272.94 289.48
  L 429.50 289.48
  Q 430.02 289.48 430.28 289.95
  Q 475.25 371.88 516.47 452.53
  C 523.22 465.73 530.01 479.88 535.86 493.11
  C 538.54 499.17 540.04 507.21 537.37 513.47
  Z"
/>
</svg>
